<?xml version="1.0" encoding="UTF-8" standalone="no" ?>
<!DOCTYPE svg PUBLIC "-//W3C//DTD SVG 1.1//EN" "http://www.w3.org/Graphics/SVG/1.1/DTD/svg11.dtd">
<svg xmlns="http://www.w3.org/2000/svg" xmlns:xlink="http://www.w3.org/1999/xlink" version="1.1" width="500" height="200" viewBox="0 0 500 200" xml:space="preserve">
<desc>Created with Fabric.js 5.2.4</desc>
<defs>
</defs>
<rect x="0" y="0" width="100%" height="100%" fill="transparent"></rect>
<g transform="matrix(1 0 0 1 250 100)" id="e887a938-736a-4b50-89be-be8c96bf0fc6"  >
<rect style="stroke: none; stroke-width: 1; stroke-dasharray: none; stroke-linecap: butt; stroke-dashoffset: 0; stroke-linejoin: miter; stroke-miterlimit: 4; fill: rgb(255,255,255); fill-rule: nonzero; opacity: 1; visibility: hidden;" vector-effect="non-scaling-stroke"  x="-250" y="-100" rx="0" ry="0" width="500" height="200" />
</g>
<g transform="matrix(Infinity NaN NaN Infinity 0 0)" id="a3fcda32-9ea4-49bb-984b-99bb8e987ec7"  >
</g>
<g transform="matrix(0.6 0 0 0.12 1601.72 506.4)" id="c3ecb2d6-79a0-4332-ae1c-7943109390a1"  >
<path style="stroke: rgb(194,210,234); stroke-width: 14; stroke-dasharray: none; stroke-linecap: butt; stroke-dashoffset: 0; stroke-linejoin: miter; stroke-miterlimit: 4; fill: rgb(148,176,218); fill-rule: nonzero; opacity: 1;" vector-effect="non-scaling-stroke"  transform=" translate(-128, -128)" d="M 79.1 184.3 L 79.1 227.10000000000002 L 10 158.1 L 79.1 89 L 79.1 132.4 C 160.5 126.30000000000001 226.29999999999998 83.9 242.29999999999998 28.900000000000006 C 244.7 37.300000000000004 245.99999999999997 46.00000000000001 245.99999999999997 54.900000000000006 C 246 122 172.9 177.2 79.1 184.3 z" stroke-linecap="round" />
</g>
<g transform="matrix(NaN NaN NaN NaN 0 0)"  >
<g style=""   >
</g>
</g>
<g transform="matrix(NaN NaN NaN NaN 0 0)"  >
<g style=""   >
</g>
</g>
<g transform="matrix(NaN NaN NaN NaN 0 0)"  >
<g style=""   >
</g>
</g>
<g transform="matrix(NaN NaN NaN NaN 0 0)"  >
<g style=""   >
</g>
</g>
<g transform="matrix(-3.87 0 0 -1.44 159.76 100)" id="b0c5f8c7-f0a6-4472-bebb-04ae3e5e8d02"  >
<path style="stroke: rgb(148,176,218); stroke-width: 5; stroke-dasharray: none; stroke-linecap: butt; stroke-dashoffset: 0; stroke-linejoin: miter; stroke-miterlimit: 4; fill: rgb(194,210,234); fill-rule: nonzero; opacity: 1;" vector-effect="non-scaling-stroke"  transform=" translate(-50.5, -49.63)" d="M 47.241 73.538 L 87.35 50.376999999999995 L 54.598 17.623 L 54.598 33.28 C 18.114 31.59 10.956 52.564 14.436 81.641 C 20.303 61.312000000000005 31.583 50.328 50.721 53.012 L 47.241 73.538 z" stroke-linecap="round" />
</g>
<g transform="matrix(NaN NaN NaN NaN 0 0)"  >
<g style=""   >
</g>
</g>
<g transform="matrix(NaN NaN NaN NaN 0 0)"  >
<g style=""   >
</g>
</g>
<g transform="matrix(NaN NaN NaN NaN 0 0)"  >
<g style=""   >
</g>
</g>
<g transform="matrix(NaN NaN NaN NaN 0 0)"  >
<g style=""   >
</g>
</g>
</svg>